<svg xmlns="http://www.w3.org/2000/svg" viewBox="0 0 512 512">
  <rect width="512" height="512" rx="112" fill="#0f766e"/>
  <path d="M132 334c48 54 111 76 188 65 32-5 57-18 75-37 8-8 7-21-3-27-21-13-42-30-61-52-21-25-35-51-42-79-3-11-16-16-25-9-31 24-59 59-83 105-8 16-24 28-42 31l-7 1z" fill="#d9f99d"/>
  <path d="M169 193c0-44 36-80 80-80s80 36 80 80-36 80-80 80-80-36-80-80z" fill="#ffffff"/>
  <path d="M250 91c17-32 43-50 78-55 7-1 12 5 10 12-9 34-30 56-64 67-16 5-32-9-24-24z" fill="#a7f3d0"/>
</svg>
